<!-- Cornerpost icon set (line, 24px). Icons are inlined in each page; this sprite is the source copy for the client build. -->
<svg xmlns="http://www.w3.org/2000/svg" style="display:none">
  <symbol id="i-phone" viewBox="0 0 24 24" fill="none" stroke="currentColor" stroke-width="1.75" stroke-linecap="square"><path d="M5 4h4l2 5-2.5 1.5a11 11 0 0 0 5 5L15 13l5 2v4a2 2 0 0 1-2 2A16 16 0 0 1 3 6a2 2 0 0 1 2-2"/></symbol>
  <symbol id="i-arrow" viewBox="0 0 24 24" fill="none" stroke="currentColor" stroke-width="1.75" stroke-linecap="square"><path d="M5 12h14M13 6l6 6-6 6"/></symbol>
  <symbol id="i-check" viewBox="0 0 24 24" fill="none" stroke="currentColor" stroke-width="1.75" stroke-linecap="square"><path d="M4 12.5l5 5L20 6.5"/></symbol>
  <symbol id="i-clip" viewBox="0 0 24 24" fill="none" stroke="currentColor" stroke-width="1.75" stroke-linecap="square"><path d="M9 4h6v3H9z"/><path d="M15 5h3a1 1 0 0 1 1 1v14a1 1 0 0 1-1 1H6a1 1 0 0 1-1-1V6a1 1 0 0 1 1-1h3"/><path d="M8.5 12h7M8.5 16h5"/></symbol>
  <symbol id="i-turn" viewBox="0 0 24 24" fill="none" stroke="currentColor" stroke-width="1.75" stroke-linecap="square"><path d="M4 21V4a1 1 0 0 1 1-1h9l1 1v17"/><path d="M15 6h4v15"/><path d="M11 12h.01"/><path d="M2 21h20"/></symbol>
  <symbol id="i-wrench" viewBox="0 0 24 24" fill="none" stroke="currentColor" stroke-width="1.75" stroke-linecap="square"><path d="M14.5 5.5a4 4 0 0 0 5 5l-9 9a2.1 2.1 0 0 1-3-3l9-9a4 4 0 0 0-2-2z"/><path d="M14.5 5.5l2.5-2.5"/></symbol>
  <symbol id="i-calendar" viewBox="0 0 24 24" fill="none" stroke="currentColor" stroke-width="1.75" stroke-linecap="square"><rect x="3.5" y="5" width="17" height="15" rx="1"/><path d="M3.5 10h17M8 3v4M16 3v4M8 14h3M13 14h3M8 17h3"/></symbol>
  <symbol id="i-building" viewBox="0 0 24 24" fill="none" stroke="currentColor" stroke-width="1.75" stroke-linecap="square"><path d="M4 21V5l8-2v18M12 7l8 2v12"/><path d="M7 8h2M7 12h2M7 16h2M15 12h2M15 16h2M2 21h20"/></symbol>
  <symbol id="i-tree" viewBox="0 0 24 24" fill="none" stroke="currentColor" stroke-width="1.75" stroke-linecap="square"><path d="M12 21v-6"/><path d="M12 3l6 8h-3l4 5H5l4-5H6z"/></symbol>
  <symbol id="i-moon" viewBox="0 0 24 24" fill="none" stroke="currentColor" stroke-width="1.75" stroke-linecap="square"><path d="M19 14.5A8 8 0 1 1 9.5 5a6.5 6.5 0 0 0 9.5 9.5z"/><path d="M17 3v3M15.5 4.5h3"/></symbol>
  <symbol id="i-key" viewBox="0 0 24 24" fill="none" stroke="currentColor" stroke-width="1.75" stroke-linecap="square"><circle cx="8" cy="15" r="4"/><path d="M11 12l9-9M17 6l3 3M15 8l2 2"/></symbol>
  <symbol id="i-shield" viewBox="0 0 24 24" fill="none" stroke="currentColor" stroke-width="1.75" stroke-linecap="square"><path d="M12 3l8 3v6c0 5-3.5 8-8 9-4.5-1-8-4-8-9V6z"/><path d="M8.5 12l2.5 2.5 4.5-5"/></symbol>
  <symbol id="i-doc" viewBox="0 0 24 24" fill="none" stroke="currentColor" stroke-width="1.75" stroke-linecap="square"><path d="M6 3h8l4 4v14H6z"/><path d="M14 3v4h4M9 12h6M9 16h6"/></symbol>
  <symbol id="i-camera" viewBox="0 0 24 24" fill="none" stroke="currentColor" stroke-width="1.75" stroke-linecap="square"><path d="M4 7h3l2-3h6l2 3h3v12H4z"/><circle cx="12" cy="13" r="3.5"/></symbol>
  <symbol id="i-upload" viewBox="0 0 24 24" fill="none" stroke="currentColor" stroke-width="1.75" stroke-linecap="square"><path d="M12 16V4M7 9l5-5 5 5"/><path d="M4 16v4h16v-4"/></symbol>
  <symbol id="i-pin" viewBox="0 0 24 24" fill="none" stroke="currentColor" stroke-width="1.75" stroke-linecap="square"><path d="M12 21s-7-6.2-7-11.5A7 7 0 0 1 19 9.5C19 14.8 12 21 12 21z"/><circle cx="12" cy="9.5" r="2.5"/></symbol>
  <symbol id="i-grid" viewBox="0 0 24 24" fill="none" stroke="currentColor" stroke-width="1.75" stroke-linecap="square"><rect x="3.5" y="3.5" width="7" height="7"/><rect x="13.5" y="3.5" width="7" height="7"/><rect x="3.5" y="13.5" width="7" height="7"/><rect x="13.5" y="13.5" width="7" height="7"/></symbol>
  <symbol id="i-clock" viewBox="0 0 24 24" fill="none" stroke="currentColor" stroke-width="1.75" stroke-linecap="square"><circle cx="12" cy="12" r="8.5"/><path d="M12 7v5l3.5 2"/></symbol>
  <symbol id="i-receipt" viewBox="0 0 24 24" fill="none" stroke="currentColor" stroke-width="1.75" stroke-linecap="square"><path d="M6 3h12v18l-3-2-3 2-3-2-3 2z"/><path d="M9 8h6M9 12h6M9 16h3"/></symbol>
  <symbol id="i-user" viewBox="0 0 24 24" fill="none" stroke="currentColor" stroke-width="1.75" stroke-linecap="square"><circle cx="12" cy="8.5" r="4"/><path d="M4 21c1-4.5 4.5-6.5 8-6.5s7 2 8 6.5"/></symbol>
  <symbol id="i-layers" viewBox="0 0 24 24" fill="none" stroke="currentColor" stroke-width="1.75" stroke-linecap="square"><path d="M12 3l9 5-9 5-9-5z"/><path d="M3 13l9 5 9-5"/></symbol>
  <symbol id="i-mail" viewBox="0 0 24 24" fill="none" stroke="currentColor" stroke-width="1.75" stroke-linecap="square"><rect x="3" y="5" width="18" height="14" rx="1"/><path d="M3.5 6l8.5 7 8.5-7"/></symbol>
  <symbol id="i-report" viewBox="0 0 24 24" fill="none" stroke="currentColor" stroke-width="1.75" stroke-linecap="square"><path d="M4 20V4M4 20h16"/><path d="M8 16v-4M12 16V8M16 16v-6"/></symbol>
</svg>
